<?xml version="1.0" encoding="utf-8"?>
<!-- Generator: Adobe Illustrator 19.0.0, SVG Export Plug-In . SVG Version: 6.00 Build 0)  -->
<svg version="1.1" id="Layer_1" xmlns="http://www.w3.org/2000/svg" xmlns:xlink="http://www.w3.org/1999/xlink" x="0px" y="0px"
	 viewBox="0 0 228.5 228.5" style="enable-background:new 0 0 228.5 228.5;" xml:space="preserve">
<style type="text/css">
	.st0{fill:#1B1919;}
	.st1{fill:none;}
	.st2{font-family:'Montserrat-Bold';}
	.st3{font-size:67.5551px;}
</style>
<path class="st0" d="M224.3,228.5H4.2c-2.3,0-4.2-1.9-4.2-4.2V4.2C0,1.9,1.9,0,4.2,0h220.1c2.3,0,4.2,1.9,4.2,4.2v220.1
	C228.5,226.6,226.6,228.5,224.3,228.5z M8.4,220.1h211.6V8.4H8.4V220.1z"/>
<g>
	<path id="XMLID_5_" class="st0" d="M45.9,188.3c-1.1,0-2.2-0.4-3-1.2c-1.6-1.6-1.6-4.3,0-6L182.7,41.3c1.6-1.6,4.3-1.6,6,0
		s1.6,4.3,0,6L48.8,187C48,187.9,46.9,188.3,45.9,188.3z"/>
</g>
<g id="XMLID_4_">
	<rect id="XMLID_32_" x="34.5" y="34.1" class="st1" width="85.2" height="57.3"/>
	<text id="XMLID_31_" transform="matrix(1 0 0 1 34.4859 84.217)" class="st0 st2 st3">H</text>
</g>
<g id="XMLID_3_">
	<rect id="XMLID_34_" x="111" y="141.1" class="st1" width="85.2" height="57.3"/>
	<text id="XMLID_33_" transform="matrix(1 0 0 1 144.7009 191.1784)" class="st0 st2 st3">H</text>
</g>
</svg>
