<svg id="Layer_1" xmlns="http://www.w3.org/2000/svg" viewBox="0 0 228.5 228.5"><style>.st0{fill:#1b1919}.st1{fill:none}.st2{font-family:&amp;apos;Montserrat-Bold&amp;apos;}.st3{font-size:67.5551px}</style><path class="st0" d="M224.3 228.5H4.2c-2.3 0-4.2-1.9-4.2-4.2V4.2C0 1.9 1.9 0 4.2 0h220.1c2.3 0 4.2 1.9 4.2 4.2v220.1c0 2.3-1.9 4.2-4.2 4.2zM8.4 220.1H220V8.4H8.4v211.7z"/><path id="XMLID_5_" class="st0" d="M45.9 188.3c-1.1 0-2.2-.4-3-1.2-1.6-1.6-1.6-4.3 0-6L182.7 41.3c1.6-1.6 4.3-1.6 6 0s1.6 4.3 0 6L48.8 187c-.8.9-1.9 1.3-2.9 1.3z"/><g id="XMLID_4_"><path id="XMLID_32_" class="st1" d="M34.5 34.1h85.2v57.3H34.5z"/><text id="XMLID_31_" transform="translate(34.486 84.217)" class="st0 st2 st3">H</text></g><g id="XMLID_3_"><path id="XMLID_34_" class="st1" d="M111 141.1h85.2v57.3H111z"/><text id="XMLID_33_" transform="translate(144.7 191.178)" class="st0 st2 st3">H</text></g></svg>